<svg height="512" viewBox="0 0 48 48" width="512" xmlns="http://www.w3.org/2000/svg"><g id="Line"><path d="m45 40h-5.38a3.7 3.7 0 0 0 1.38-3 4 4 0 0 0 -8 0 4.23 4.23 0 0 0 1.38 3h-19.76a3.79 3.79 0 0 0 1.38-3 4 4 0 0 0 -8 0 4.12 4.12 0 0 0 1.38 3h-6.38a1 1 0 0 0 0 2h42a1 1 0 0 0 0-2z"/><path d="m8.18 23h9.82v-4h-9.15z"/><path d="m20 19h10v4h-10z"/><path d="m35.4 19h-3.4v4h7.61l-.42-1.26a4 4 0 0 0 -3.79-2.74z"/><path d="m44.47 20.85c-.6-5-7.11-6.7-7.11-6.7l-30.8-.15a3 3 0 0 0 -2.82 2.5l-1.74 10.42s0 6.08 0 6.08a5 5 0 0 0 4.08 4.91 4.6 4.6 0 0 1 -.08-.91 6 6 0 0 1 12 0 5.47 5.47 0 0 1 -.09 1h13.18a5.47 5.47 0 0 1 -.09-1 6 6 0 0 1 12 0 5.88 5.88 0 0 1 0 .6 5 5 0 0 0 3-4.6s-.61-4.48-1.53-12.15zm-3.47 4.15h-34a1 1 0 0 1 -1-1.16l1-6a1 1 0 0 1 1-.84h27.4a6 6 0 0 1 5.69 4.1l.91 2.58a1 1 0 0 1 -1 1.32z"/><path d="m15 6a1 1 0 0 0 -1 1v1h2v-1a1 1 0 0 0 -1-1z"/><path d="m29 6a1 1 0 0 0 -1 1v1h2v-1a1 1 0 0 0 -1-1z"/><path d="m6 12s8 0 8 0v-4h-4a4 4 0 0 0 -4 4z"/><path d="m16 8h12v4h-12z"/><path d="m38 12a4 4 0 0 0 -4-4h-4v4z"/></g></svg>