<svg width="136" height="15" class="hidden">
  <symbol fill="none" xmlns="http://www.w3.org/2000/svg" viewBox="0 0 13 15" id="Vector">
    <path d="M0 3.18182V0H12.642V3.18182H8.26705V14.5455H4.375V3.18182H0Z" fill="#101828"></path>
  </symbol>
  <symbol fill="none" xmlns="http://www.w3.org/2000/svg" viewBox="0 0 8 12" id="Vector2">
    <path d="M0.452148 11.5455V0.636369H4.25897V2.71023H4.3726C4.57147 1.94319 4.88633 1.38211 5.31721 1.02699C5.75281 0.67188 6.26181 0.494324 6.84419 0.494324C7.01465 0.494324 7.18274 0.508528 7.34846 0.536937C7.51891 0.560611 7.68226 0.596122 7.83851 0.643471V3.98864C7.64438 3.92235 7.40527 3.87264 7.12118 3.83949C6.83709 3.80635 6.59325 3.78978 6.38965 3.78978C6.00613 3.78978 5.66048 3.87737 5.35272 4.05256C5.04969 4.22302 4.81058 4.46449 4.63539 4.77699C4.4602 5.08476 4.3726 5.44698 4.3726 5.86364V11.5455H0.452148Z" fill="#101828"></path>
  </symbol>
  <symbol fill="none" xmlns="http://www.w3.org/2000/svg" viewBox="0 0 11 12" id="Vector3">
    <path d="M4.05602 11.7159C3.36 11.7159 2.74447 11.6023 2.20943 11.375C1.67913 11.143 1.26246 10.7926 0.959429 10.3239C0.656399 9.85512 0.504883 9.25853 0.504883 8.5341C0.504883 7.9375 0.606683 7.42851 0.810282 7.00711C1.01388 6.58097 1.29797 6.23296 1.66255 5.96307C2.02714 5.69319 2.45091 5.48722 2.93386 5.34518C3.42155 5.20313 3.94712 5.1108 4.51056 5.06819C5.12136 5.02084 5.61142 4.96402 5.98074 4.89773C6.35479 4.82671 6.62468 4.72964 6.7904 4.60654C6.95612 4.4787 7.03897 4.31061 7.03897 4.10228V4.07387C7.03897 3.78978 6.93007 3.57197 6.71227 3.42046C6.49447 3.26894 6.21511 3.19319 5.8742 3.19319C5.50015 3.19319 5.19475 3.27605 4.95801 3.44177C4.726 3.60275 4.58632 3.85133 4.53897 4.1875H0.931019C0.978367 3.52463 1.18907 2.91383 1.56312 2.35512C1.94191 1.79167 2.49352 1.34186 3.21795 1.00569C3.94238 0.664778 4.84674 0.494324 5.93102 0.494324C6.71227 0.494324 7.41303 0.586653 8.03329 0.771312C8.65356 0.951236 9.18149 1.20455 9.6171 1.53125C10.0527 1.85322 10.3841 2.23201 10.6114 2.66762C10.8434 3.09849 10.9594 3.56724 10.9594 4.07387V11.5455H7.29466V10.0114H7.20943C6.99163 10.4186 6.72647 10.7476 6.41397 10.9986C6.10621 11.2495 5.75346 11.4318 5.35574 11.5455C4.96274 11.6591 4.5295 11.7159 4.05602 11.7159ZM5.33443 9.24432C5.63272 9.24432 5.91208 9.18277 6.1725 9.05966C6.43765 8.93656 6.65308 8.759 6.8188 8.52699C6.98452 8.29499 7.06738 8.01326 7.06738 7.68182V6.77273C6.96322 6.81535 6.85195 6.85559 6.73358 6.89347C6.61994 6.93135 6.49684 6.96686 6.36426 7C6.23642 7.03315 6.09911 7.06393 5.95233 7.09233C5.81028 7.12074 5.66113 7.14679 5.50488 7.17046C5.20185 7.21781 4.95327 7.29593 4.75914 7.40483C4.56975 7.509 4.4277 7.63921 4.33301 7.79546C4.24305 7.94697 4.19806 8.11743 4.19806 8.30682C4.19806 8.60985 4.3046 8.84186 4.51767 9.00285C4.73074 9.16383 5.00299 9.24432 5.33443 9.24432Z" fill="#101828"></path>
  </symbol>
  <symbol fill="none" xmlns="http://www.w3.org/2000/svg" viewBox="0 0 13 12" id="Vector4">
    <path d="M12.8364 0.636353L9.17165 11.5454H4.6262L0.961426 0.636353H5.08075L6.84211 7.85226H6.95575L8.71711 0.636353H12.8364Z" fill="#101828"></path>
  </symbol>
  <symbol fill="none" xmlns="http://www.w3.org/2000/svg" viewBox="0 0 12 12" id="Vector5">
    <path d="M6.2467 11.7443C5.08193 11.7443 4.07814 11.5218 3.23534 11.0767C2.39727 10.6269 1.75096 9.98296 1.29642 9.14489C0.846607 8.30209 0.621704 7.29357 0.621704 6.11932C0.621704 4.99243 0.848975 4.00758 1.30352 3.16478C1.75807 2.32197 2.39964 1.6662 3.22824 1.19745C4.05684 0.728699 5.03458 0.494324 6.16148 0.494324C6.98534 0.494324 7.73108 0.622164 8.39869 0.877846C9.06631 1.13353 9.63686 1.50521 10.1103 1.9929C10.5838 2.47586 10.9484 3.06298 11.2041 3.75427C11.4598 4.44555 11.5876 5.22444 11.5876 6.09091V7H1.84329V4.84091H7.97966C7.97492 4.52841 7.89443 4.25379 7.73818 4.01705C7.58667 3.77557 7.3807 3.58855 7.12028 3.45597C6.8646 3.31866 6.57341 3.25 6.2467 3.25C5.92947 3.25 5.63827 3.31866 5.37312 3.45597C5.10797 3.58855 4.8949 3.77321 4.73392 4.00995C4.57767 4.24669 4.49481 4.52368 4.48534 4.84091V7.17046C4.48534 7.52084 4.55873 7.83334 4.70551 8.10796C4.85229 8.38258 5.06299 8.59802 5.33761 8.75427C5.61223 8.91052 5.94367 8.98864 6.33193 8.98864C6.60182 8.98864 6.84803 8.95076 7.07057 8.875C7.29784 8.79925 7.49197 8.69035 7.65295 8.5483C7.81394 8.40152 7.93231 8.22633 8.00807 8.02273H11.5876C11.4645 8.78031 11.1733 9.43845 10.714 9.99716C10.2548 10.5511 9.64632 10.982 8.88875 11.2898C8.13591 11.5928 7.25523 11.7443 6.2467 11.7443Z" fill="#101828"></path>
  </symbol>
  <symbol fill="none" xmlns="http://www.w3.org/2000/svg" viewBox="0 0 5 15" id="Vector6">
    <path d="M4.50785 0V14.5455H0.587402V0H4.50785Z" fill="#101828"></path>
  </symbol>
  <symbol fill="none" xmlns="http://www.w3.org/2000/svg" viewBox="0 0 14 15" id="Vector7">
    <path d="M0.450806 3.18182V0H13.0928V3.18182H8.71785V14.5455H4.82581V3.18182H0.450806Z" fill="#475467"></path>
  </symbol>
  <symbol fill="none" xmlns="http://www.w3.org/2000/svg" viewBox="0 0 9 12" id="Vector8">
    <path d="M0.902954 11.5455V0.636369H4.70978V2.71023H4.82341C5.02227 1.94319 5.33714 1.38211 5.76801 1.02699C6.20362 0.67188 6.71261 0.494324 7.295 0.494324C7.46545 0.494324 7.63354 0.508528 7.79926 0.536937C7.96972 0.560611 8.13307 0.596122 8.28932 0.643471V3.98864C8.09519 3.92235 7.85608 3.87264 7.57199 3.83949C7.2879 3.80635 7.04405 3.78978 6.84045 3.78978C6.45693 3.78978 6.11129 3.87737 5.80353 4.05256C5.5005 4.22302 5.26139 4.46449 5.0862 4.77699C4.91101 5.08476 4.82341 5.44698 4.82341 5.86364V11.5455H0.902954Z" fill="#475467"></path>
  </symbol>
  <symbol fill="none" xmlns="http://www.w3.org/2000/svg" viewBox="0 0 12 12" id="Vector9">
    <path d="M8.04872 6.77272V0.636353H11.9692V11.5454H8.24758V9.47158H8.13395C7.89721 10.1676 7.48291 10.7121 6.89105 11.1051C6.2992 11.4934 5.59607 11.6875 4.78168 11.6875C4.01937 11.6875 3.35175 11.5123 2.77883 11.1619C2.21065 10.8115 1.76794 10.3286 1.45071 9.71306C1.13821 9.09753 0.979588 8.39203 0.974854 7.59658V0.636353H4.89531V6.77272C4.90004 7.31249 5.03736 7.73626 5.30724 8.04402C5.58186 8.35179 5.96538 8.50567 6.45781 8.50567C6.78451 8.50567 7.06624 8.43702 7.30298 8.2997C7.54446 8.15766 7.72912 7.9588 7.85696 7.70311C7.98953 7.4427 8.05346 7.13256 8.04872 6.77272Z" fill="#475467"></path>
  </symbol>
  <symbol fill="none" xmlns="http://www.w3.org/2000/svg" viewBox="0 0 12 12" id="Vector10">
    <path d="M6.61887 11.7443C5.43515 11.7443 4.4219 11.5099 3.57909 11.0412C2.73629 10.5677 2.08999 9.90957 1.64017 9.06677C1.19036 8.21923 0.965454 7.23675 0.965454 6.11932C0.965454 5.0019 1.19036 4.02178 1.64017 3.17898C2.08999 2.33144 2.73629 1.6733 3.57909 1.20455C4.4219 0.731066 5.43515 0.494324 6.61887 0.494324C7.68894 0.494324 8.6146 0.688452 9.39585 1.07671C10.1818 1.46023 10.7903 2.00474 11.2211 2.71023C11.652 3.41099 11.8698 4.23485 11.8745 5.18182H8.23818C8.1861 4.60891 8.02038 4.1733 7.74103 3.875C7.46641 3.57197 7.11129 3.42046 6.67568 3.42046C6.33477 3.42046 6.03648 3.51989 5.7808 3.71875C5.52512 3.91288 5.32625 4.20881 5.1842 4.60654C5.04216 4.99953 4.97114 5.49432 4.97114 6.09091C4.97114 6.6875 5.04216 7.18466 5.1842 7.58239C5.32625 7.97538 5.52512 8.27131 5.7808 8.47018C6.03648 8.6643 6.33477 8.76137 6.67568 8.76137C6.96451 8.76137 7.22019 8.69508 7.44273 8.5625C7.66526 8.42519 7.84519 8.22633 7.98251 7.96591C8.12455 7.70076 8.20977 7.37879 8.23818 7H11.8745C11.8603 7.96118 11.6402 8.79925 11.214 9.51421C10.7879 10.2244 10.1842 10.7737 9.40295 11.1619C8.62644 11.5502 7.69841 11.7443 6.61887 11.7443Z" fill="#475467"></path>
  </symbol>
  <symbol fill="none" xmlns="http://www.w3.org/2000/svg" viewBox="0 0 13 15" id="Vector11">
    <path d="M4.41482 11.9602L4.44323 7.30114H4.95459L7.59663 3.63636H12L7.56823 9.34659H6.46027L4.41482 11.9602ZM0.89209 14.5455V0H4.81255V14.5455H0.89209ZM7.62505 14.5455L5.12505 10.2273L7.68186 7.44318L12.1137 14.5455H7.62505Z" fill="#475467"></path>
  </symbol>
  <symbol fill="none" xmlns="http://www.w3.org/2000/svg" viewBox="0 0 12 12" id="Vector12">
    <path d="M11.3925 4.1875H7.78458C7.76564 3.96497 7.68751 3.77321 7.5502 3.61222C7.41289 3.45124 7.23534 3.32813 7.01753 3.2429C6.80446 3.15294 6.56773 3.10796 6.30731 3.10796C5.97114 3.10796 5.6823 3.16951 5.44083 3.29262C5.19935 3.41572 5.08099 3.59091 5.08572 3.81819C5.08099 3.97917 5.14964 4.12832 5.29169 4.26563C5.43847 4.40294 5.72019 4.50947 6.13686 4.58523L8.35277 4.98296C9.47019 5.18656 10.3011 5.52983 10.8457 6.01279C11.3949 6.49101 11.6719 7.13258 11.6766 7.9375C11.6719 8.71402 11.4399 9.38874 10.9806 9.96165C10.5261 10.5298 9.90342 10.9702 9.1127 11.2827C8.32672 11.5904 7.42947 11.7443 6.42094 11.7443C4.75428 11.7443 3.44983 11.4034 2.50759 10.7216C1.57009 10.0398 1.04689 9.14016 0.937988 8.02273H4.83003C4.88212 8.36838 5.05257 8.63589 5.3414 8.82529C5.63496 9.00995 6.00428 9.10228 6.44936 9.10228C6.8092 9.10228 7.10513 9.04072 7.33714 8.91762C7.57388 8.79451 7.69462 8.61932 7.69936 8.39205C7.69462 8.18372 7.59045 8.018 7.38686 7.89489C7.18799 7.77179 6.87549 7.67235 6.44936 7.5966L4.51753 7.25569C3.40484 7.06156 2.57152 6.69224 2.01754 6.14773C1.46356 5.60322 1.18894 4.90247 1.19367 4.04546C1.18894 3.28788 1.38781 2.64631 1.79027 2.12074C2.19746 1.59044 2.77748 1.18798 3.53032 0.913357C4.28789 0.634001 5.18514 0.494324 6.22208 0.494324C7.79878 0.494324 9.04168 0.821028 9.95078 1.47444C10.8646 2.12785 11.3452 3.0322 11.3925 4.1875Z" fill="#475467"></path>
  </symbol>
</svg>